<!DOCTYPE svg PUBLIC "-//W3C//DTD SVG 1.1//EN" "http://www.w3.org/Graphics/SVG/1.1/DTD/svg11.dtd">
<!-- Uploaded to: SVG Repo, www.svgrepo.com, Transformed by: SVG Repo Mixer Tools -->
<svg fill="#ffffff" height="800px" width="800px" version="1.1" id="Layer_1" xmlns="http://www.w3.org/2000/svg" xmlns:xlink="http://www.w3.org/1999/xlink" viewBox="0 0 512 512" xml:space="preserve" transform="matrix(-1, 0, 0, 1, 0, 0)">
<g id="SVGRepo_bgCarrier" stroke-width="0"/>
<g id="SVGRepo_tracerCarrier" stroke-linecap="round" stroke-linejoin="round"/>
<g id="SVGRepo_iconCarrier"> <g> <g> <path d="M320.584,7.171c-4.194-4.54-10.097-7.141-16.277-7.141H138.807c-6.185,0-12.089,2.583-16.286,7.126 c-4.198,4.542-6.301,10.632-5.819,16.798c5.823,74.549,38.489,134.671,80.93,151.361v12.794h47.851v-12.795 c42.44-16.691,75.106-76.813,80.929-151.36C326.894,17.792,324.778,11.711,320.584,7.171z"/> </g> </g> <g> <g> <path d="M511.806,493.665l-24.714-158.272V229.305c0-8.748-7.092-15.839-15.839-15.839h-88.203 c-8.748,0-15.839,7.091-15.839,15.839v13.883h-28.771v-15.02c0-8.12-6.583-14.702-14.702-14.702H132.563 c-8.12,0-14.702,6.582-14.702,14.702v26.148H16.692C7.474,254.316,0,261.79,0,271.009c0,9.219,7.474,16.692,16.692,16.692H117.86 v26.148c0,8.12,6.582,14.702,14.702,14.702h71.634v42.509l-38.585,55.649c-5.252,7.576-3.368,17.975,4.206,23.229 c7.577,5.252,17.976,3.367,23.229-4.206l41.559-59.939c1.936-2.794,2.975-6.112,2.975-9.511v-47.73h86.156 c8.12,0,14.702-6.583,14.702-14.702v-15.02h28.771v29.722l-25.898,165.104c-1.515,9.655,6.004,18.314,15.647,18.314 c36.486,0,104.586,0,139.198,0C505.867,511.967,513.31,503.293,511.806,493.665z"/> </g> </g> </g>
</svg>